<svg xmlns="http://www.w3.org/2000/svg" width="250" height="48" viewBox="0 0 250 48" fill="none">
  <path d="M246.199 32.9516H245.175V35.7542H244.608V32.9516H243.593V32.4948H246.199V32.9516Z" fill="white"/>
  <path d="M247.37 32.4948L248.317 34.9928L249.263 32.4948H250V35.7542H249.431V34.6795L249.488 33.2425L248.518 35.7542H248.109L247.141 33.2449L247.198 34.6795V35.7542H246.629V32.4948H247.369H247.37Z" fill="white"/>
  <path d="M191.748 0.00160286C191.617 0.00160286 191.486 0.104987 191.452 0.233216C189.433 7.87084 188.371 12.4799 185.426 19.6871C184.952 20.8468 183.795 21.7324 182.559 21.859C160.295 24.1503 56.3415 23.344 2.45994 23.6951C2.33068 23.6959 2.20707 23.7977 2.18041 23.9227C2.15375 24.0485 2.23373 24.1503 2.36219 24.1511C56.0935 24.4925 160.392 23.6806 181.678 25.9631C182.861 26.0897 183.639 26.9761 183.616 28.1358C183.468 35.3519 182.556 39.9673 181.299 47.6137C181.277 47.742 181.366 47.8454 181.497 47.8454C181.628 47.8454 181.762 47.742 181.795 47.6137C183.817 39.9681 184.882 35.3535 187.833 28.139C188.307 26.9769 189.475 26.0913 190.716 25.9423C206.006 24.1134 226.291 24.4853 238.042 24.1551C238.173 24.1519 238.299 24.0485 238.324 23.9227C238.353 23.7969 238.271 23.6943 238.143 23.6903C226.534 23.3505 206.09 23.7167 191.584 21.8782C190.406 21.7292 189.62 20.8436 189.643 19.6823C189.785 12.4767 190.697 7.86763 191.95 0.231613C191.969 0.103384 191.883 0 191.748 0L191.748 0.00160286Z" fill="url(#paint0_radial_7257_2237)"/>
  <path d="M109.99 33.3018H117.53L117.753 32.2463H110.136C108.96 32.2463 108.262 32.5244 107.943 33.991L105.956 43.177C105.902 43.3782 105.877 43.5745 105.877 43.7949C105.877 44.8448 106.722 44.977 107.357 44.9851L115.065 44.9819L115.309 43.9264H107.656C107.122 43.9264 107.078 43.7525 107.078 43.5593C107.078 43.4623 107.093 43.3598 107.129 43.2251L108.043 39H116.103L116.329 37.9445H108.268L109.117 34.0383C109.229 33.5687 109.326 33.3034 109.99 33.3034L109.99 33.3018Z" fill="white"/>
  <path d="M142.642 32.2543L140.181 43.6666C140.114 43.9167 140.006 43.9167 139.965 43.9167C139.857 43.9167 139.795 43.8494 139.73 43.661L135.315 33.0108C135.117 32.5444 134.83 32.1124 134.076 32.1124C133.626 32.1124 132.833 32.2879 132.577 33.462L130.074 44.9898H131.258L133.719 33.6151C133.786 33.341 133.988 33.3274 133.989 33.3274C134.165 33.3274 134.233 33.539 134.241 33.563L134.244 33.575L138.616 44.1603C138.867 44.7614 139.165 45.1333 139.873 45.1333C140.581 45.1333 141.066 44.7133 141.302 43.8846L141.309 43.8862L143.829 32.2567H142.643L142.642 32.2543Z" fill="white"/>
  <path d="M159.56 34.9006C160.417 33.8275 161.63 33.3057 163.269 33.3057H168.873L169.099 32.2502H163.307C161.302 32.2502 159.817 32.8136 158.768 33.9741C157.893 34.9406 157.301 36.3119 156.847 38.4205C156.616 39.5064 156.502 40.392 156.502 41.1277C156.502 43.762 157.709 44.989 160.302 44.989H165.063C166.067 44.989 166.676 44.5594 166.924 43.6762L167.933 39.044H166.747L165.841 43.2178C165.716 43.7331 165.482 43.9335 165.006 43.9335H160.265C158.48 43.9335 157.719 43.0784 157.719 41.0748C157.719 40.388 157.856 39.605 158.062 38.64C158.315 37.4579 158.713 35.9641 159.56 34.9006Z" fill="white"/>
  <path d="M209.577 32.2543L207.116 43.6666C207.049 43.9167 206.941 43.9167 206.901 43.9167C206.793 43.9167 206.73 43.8494 206.666 43.661L202.251 33.0108C202.053 32.5444 201.766 32.1124 201.011 32.1124C200.561 32.1124 199.769 32.2879 199.513 33.462L197.01 44.9898H198.193L200.654 33.6151C200.721 33.341 200.924 33.3274 200.926 33.3274C201.103 33.3274 201.17 33.539 201.177 33.563L201.18 33.575L205.552 44.1603C205.804 44.7614 206.102 45.1333 206.81 45.1333C207.517 45.1333 208.002 44.7133 208.238 43.8846L208.245 43.8862L210.765 32.2567H209.579L209.577 32.2543Z" fill="white"/>
  <path d="M228.074 33.3018H235.614L235.837 32.2463H228.218C227.017 32.2463 226.349 32.5164 226.028 33.991L224.039 43.177C223.987 43.3726 223.964 43.5689 223.964 43.7941C223.964 44.8384 224.798 44.973 225.425 44.9835L233.15 44.9803L233.394 43.9248H225.742C225.208 43.9248 225.164 43.7509 225.164 43.5577C225.164 43.4623 225.18 43.359 225.215 43.2235L226.13 38.9984H234.189L234.416 37.9429H226.354L227.203 34.0375C227.316 33.5679 227.412 33.3018 228.075 33.3018H228.074Z" fill="white"/>
  <path d="M87.1845 32.4843H80.2657C79.1879 32.4843 78.132 33.3322 77.9082 34.3781L75.6211 45.0515H78.4099L79.1694 41.5084L82.2563 40.4938L84.8432 45.0339H88.33L85.193 39.5289L86.85 38.9839C88.1652 38.5519 89.2163 37.4179 89.4732 36.1557L89.6211 35.4288C89.9523 33.7971 88.8665 32.4835 87.1845 32.4835V32.4843ZM86.8266 35.4576L86.6787 36.1845C86.6553 36.2991 86.56 36.4025 86.4404 36.4418L79.7858 38.6289L80.5226 35.19H86.6052C86.7579 35.19 86.8565 35.3094 86.8266 35.4576Z" fill="white"/>
  <path fill-rule="evenodd" clip-rule="evenodd" d="M39.4671 32.4851H27.1621L26.582 35.1907H31.4189L29.3321 44.9273H32.1209L34.2077 35.1907H38.887L39.4671 32.4851Z" fill="white"/>
  <path fill-rule="evenodd" clip-rule="evenodd" d="M1.9034 35.4376C2.25564 33.7938 3.91424 32.4611 5.60839 32.4611H13.4522L12.8722 35.1667H5.02913C4.87483 35.1667 4.72456 35.2877 4.69224 35.4376L4.56702 36.0218C4.48461 36.4057 4.69143 36.7375 5.06145 36.816L10.1568 37.8419C11.7621 38.1833 12.6564 39.6202 12.3002 41.2848L12.1652 41.9163C11.813 43.5601 10.1544 44.8928 8.46025 44.8928H0L0.580067 42.1872H9.03951C9.19382 42.1872 9.34409 42.0662 9.3764 41.9163L9.51132 41.2848C9.59373 40.9009 9.38691 40.5691 9.01689 40.4906L3.92232 39.4648C2.31704 39.1233 1.4227 37.6864 1.77898 36.0226L1.9042 35.4384L1.9034 35.4376Z" fill="white"/>
  <path fill-rule="evenodd" clip-rule="evenodd" d="M57.7864 35.8904L59.2996 44.9313H62.271L60.3999 33.7393C60.244 32.8049 59.4587 32.1846 58.4319 32.1846C57.4616 32.1846 56.4639 32.7392 55.8862 33.5991L48.2734 44.9313H51.4274L57.4495 35.8199C57.5416 35.6804 57.7589 35.7261 57.7864 35.8904Z" fill="white"/>
  <defs>
    <radialGradient id="paint0_radial_7257_2237" cx="0" cy="0" r="1" gradientTransform="matrix(-180.462 -0.343691 -0.274548 141.86 188.859 20.7402)" gradientUnits="userSpaceOnUse">
      <stop stop-color="#FFECCF"/>
      <stop offset="0.06" stop-color="#F9C02F"/>
      <stop offset="0.2" stop-color="#FFAE00"/>
      <stop offset="1" stop-color="#8E6701"/>
    </radialGradient>
  </defs>
</svg>
